<?xml version="1.0" encoding="utf-8"?>
<!-- Generator: Adobe Illustrator 14.0.0, SVG Export Plug-In . SVG Version: 6.00 Build 43363)  -->
<!DOCTYPE svg PUBLIC "-//W3C//DTD SVG 1.1//EN" "http://www.w3.org/Graphics/SVG/1.1/DTD/svg11.dtd">
<svg version="1.1" id="Layer_1" xmlns="http://www.w3.org/2000/svg" xmlns:xlink="http://www.w3.org/1999/xlink" x="0px" y="0px"
	 width="630.848px" height="258px" viewBox="-16.5 -14.5 630.848 258" enable-background="new -16.5 -14.5 630.848 258"
	 xml:space="preserve">
<path fill="#FFFFFF" d="M298.912,230.666c-23.534,0-46.216-7.033-65.592-20.338c-17.42-11.961-31.135-28.221-39.915-47.256h-43.158
	l-7.887-21.27h-9.892l-7.886-21.279H90.129l-7.884-21.268h-9.891l-7.879-21.27H29.887l-7.88-21.27H12.11L-4.603,11.585h249.674
	c16.531-8.674,35.101-13.251,53.841-13.251c18.742,0,37.313,4.577,53.846,13.251H602.45l-16.719,45.131h-9.893l-7.88,21.27h-34.59
	l-7.878,21.27h-9.89l-7.885,21.268h-34.455l-7.885,21.279h-9.893l-7.881,21.27h-43.176c-8.781,19.035-22.497,35.295-39.918,47.256
	C345.133,223.633,322.449,230.666,298.912,230.666L298.912,230.666z"/>
<g>
	<path d="M350.77,19.506c-15.408-8.444-33.08-13.251-51.856-13.251c-18.774,0-36.445,4.808-51.852,13.251H6.777l10.847,29.291h9.896
		l7.88,21.27h34.589l7.878,21.269h9.89l7.884,21.268h34.454l7.886,21.279h9.891l7.886,21.27h42.843
		c16.105,39.6,54.998,67.594,100.312,67.594c45.319,0,84.214-27.994,100.319-67.594h42.859l7.881-21.27h9.893l7.885-21.279h34.457
		l7.885-21.268h9.887l7.879-21.269h34.59l7.881-21.27h9.893l10.85-29.291H350.77z M23.136,40.876l-4.981-13.451h216.531
		c-5.424,4.012-10.459,8.518-15.043,13.451H23.136z M40.911,62.146l-4.983-13.45h177.103c-3.262,4.247-6.216,8.741-8.829,13.45
		H40.911z M83.379,83.416l-4.982-13.451h121.865c-1.966,4.338-3.647,8.832-5.035,13.451H83.379z M101.151,104.684l-4.984-13.447
		h97.029c-0.965,4.39-1.663,8.877-2.075,13.447H101.151z M143.492,125.963l-4.984-13.448h52.188
		c-0.012,0.661-0.025,1.321-0.025,1.985c0,3.872,0.208,7.696,0.607,11.463H143.492z M161.268,147.232l-4.985-13.445h36.111
		c0.829,4.59,1.951,9.076,3.34,13.445H161.268z M298.913,214.906c-55.36,0-100.403-45.047-100.403-100.407
		c0-55.363,45.043-100.406,100.403-100.406c55.37,0,100.415,45.043,100.417,100.406C399.33,169.859,354.281,214.906,298.913,214.906
		z M436.58,147.232H402.1c1.391-4.369,2.512-8.855,3.342-13.445h36.121L436.58,147.232z M454.354,125.963h-47.797
		c0.398-3.768,0.607-7.592,0.607-11.463c0-0.664-0.014-1.324-0.025-1.985h52.199L454.354,125.963z M496.695,104.684h-89.982
		c-0.412-4.569-1.109-9.057-2.074-13.447h97.043L496.695,104.684z M514.467,83.416H402.607c-1.387-4.619-3.068-9.113-5.035-13.451
		h121.877L514.467,83.416z M556.936,62.146H393.633c-2.615-4.709-5.568-9.203-8.83-13.45h177.115L556.936,62.146z M574.709,40.876
		h-196.52c-4.584-4.933-9.619-9.439-15.043-13.451h216.545L574.709,40.876z"/>
	<path d="M305.637,201.029V27.78l1.971,0.196c44.621,4.425,78.27,41.629,78.27,86.524c0,38.188-24.467,71.53-60.873,82.973
		l-2.334,0.727l0.018-8.195l1.223-0.408c32.371-10.777,54.119-40.955,54.119-75.094c0-38.434-27.021-70.811-64.549-77.766V200.25
		l-1.52,0.229c-1.418,0.221-2.855,0.398-4.301,0.547l-0.086,0.006L305.637,201.029L305.637,201.029z"/>
	<path d="M290.361,201.029c-1.623-0.152-3.054-0.332-4.474-0.543l-1.532-0.23V57.198l-24.14,85.144l-19.987-80.836
		c-13.19,14.576-20.421,33.266-20.421,52.995c0,21.769,9.104,42.792,24.981,57.699l0.564,0.525l-0.015,10.375l-2.953-2.527
		c-19.333-16.559-30.424-40.643-30.424-66.072c0-25.435,11.093-49.523,30.435-66.078c0-0.003,2.133-1.829,2.133-1.829l0.823,2.98
		l15.364,62.114l24.026-84.71l1.146-0.168c1.43-0.211,2.873-0.382,4.332-0.529l1.975-0.201v174.952h-1.833V201.029z"/>
</g>
</svg>
